<?xml version="1.0" encoding="utf-8"?>
<svg version="1.1" xmlns:xlink="http://www.w3.org/1999/xlink" width="180px" height="180px" xmlns="http://www.w3.org/2000/svg">
  <g transform="matrix(1 0 0 1 -170 -132 )">
    <path d="M 260 132  C 310.4 132  350 171.6  350 222  C 350 272.4  310.4 312  260 312  C 209.6 312  170 272.4  170 222  C 170 171.6  209.6 132  260 132  Z " fill-rule="nonzero" fill="#ffffff" stroke="none" />
    <path d="M 260 132.5  C 310.12 132.5  349.5 171.88  349.5 222  C 349.5 272.12  310.12 311.5  260 311.5  C 209.88 311.5  170.5 272.12  170.5 222  C 170.5 171.88  209.88 132.5  260 132.5  Z " stroke-width="1" stroke="#797979" fill="none" />
  </g>
</svg>