<?xml version="1.0" encoding="utf-8"?>
<svg version="1.1" xmlns:xlink="http://www.w3.org/1999/xlink" width="284px" height="284px" xmlns="http://www.w3.org/2000/svg">
  <g transform="matrix(1 0 0 1 -112 -143 )">
    <path d="M 254 143  C 333.52 143  396 205.48  396 285  C 396 364.52  333.52 427  254 427  C 174.48 427  112 364.52  112 285  C 112 205.48  174.48 143  254 143  Z " fill-rule="nonzero" fill="#ffffff" stroke="none" />
    <path d="M 254 143.5  C 333.24 143.5  395.5 205.76  395.5 285  C 395.5 364.24  333.24 426.5  254 426.5  C 174.76 426.5  112.5 364.24  112.5 285  C 112.5 205.76  174.76 143.5  254 143.5  Z " stroke-width="1" stroke="#797979" fill="none" />
  </g>
</svg>