<?xml version="1.0" encoding="utf-8"?>
<svg version="1.1" xmlns:xlink="http://www.w3.org/1999/xlink" width="21px" height="21px" xmlns="http://www.w3.org/2000/svg">
  <g transform="matrix(1 0 0 1 -244 -275 )">
    <path d="M 254.5 275  C 260.38 275  265 279.62  265 285.5  C 265 291.38  260.38 296  254.5 296  C 248.62 296  244 291.38  244 285.5  C 244 279.62  248.62 275  254.5 275  Z " fill-rule="nonzero" fill="#333333" stroke="none" />
    <path d="M 254.5 275.5  C 260.1 275.5  264.5 279.9  264.5 285.5  C 264.5 291.1  260.1 295.5  254.5 295.5  C 248.9 295.5  244.5 291.1  244.5 285.5  C 244.5 279.9  248.9 275.5  254.5 275.5  Z " stroke-width="1" stroke="#797979" fill="none" />
  </g>
</svg>