<?xml version="1.0" encoding="utf-8"?>
<svg version="1.1" xmlns:xlink="http://www.w3.org/1999/xlink" width="30px" height="30px" xmlns="http://www.w3.org/2000/svg">
  <g transform="matrix(1 0 0 1 -349 -2374 )">
    <path d="M 364 2374  C 372.4 2374  379 2380.6  379 2389  C 379 2397.4  372.4 2404  364 2404  C 355.6 2404  349 2397.4  349 2389  C 349 2380.6  355.6 2374  364 2374  Z " fill-rule="nonzero" fill="#ffffff" stroke="none" />
    <path d="M 364 2374.5  C 372.12 2374.5  378.5 2380.88  378.5 2389  C 378.5 2397.12  372.12 2403.5  364 2403.5  C 355.88 2403.5  349.5 2397.12  349.5 2389  C 349.5 2380.88  355.88 2374.5  364 2374.5  Z " stroke-width="1" stroke="#797979" fill="none" />
  </g>
</svg>