<?xml version="1.0" encoding="utf-8"?>
<svg version="1.1" xmlns:xlink="http://www.w3.org/1999/xlink" width="42px" height="42px" xmlns="http://www.w3.org/2000/svg">
  <defs>
    <filter x="572px" y="3154px" width="42px" height="42px" filterUnits="userSpaceOnUse" id="filter31">
      <feOffset dx="2" dy="2" in="SourceAlpha" result="shadowOffsetInner" />
      <feGaussianBlur stdDeviation="2.5" in="shadowOffsetInner" result="shadowGaussian" />
      <feComposite in2="shadowGaussian" operator="atop" in="SourceAlpha" result="shadowComposite" />
      <feColorMatrix type="matrix" values="0 0 0 0 0  0 0 0 0 0  0 0 0 0 0  0 0 0 0.349019607843137 0  " in="shadowComposite" />
    </filter>
    <g id="widget32">
      <path d="M 591 3157  C 599.96 3157  607 3164.04  607 3173  C 607 3181.96  599.96 3189  591 3189  C 582.04 3189  575 3181.96  575 3173  C 575 3164.04  582.04 3157  591 3157  Z " fill-rule="nonzero" fill="#ffffff" stroke="none" />
      <path d="M 591 3157.5  C 599.68 3157.5  606.5 3164.32  606.5 3173  C 606.5 3181.68  599.68 3188.5  591 3188.5  C 582.32 3188.5  575.5 3181.68  575.5 3173  C 575.5 3164.32  582.32 3157.5  591 3157.5  Z " stroke-width="1" stroke="#797979" fill="none" />
    </g>
  </defs>
  <g transform="matrix(1 0 0 1 -572 -3154 )">
    <use xlink:href="#widget32" filter="url(#filter31)" />
    <use xlink:href="#widget32" />
  </g>
</svg>