<?xml version="1.0" encoding="utf-8"?>
<svg version="1.1" xmlns:xlink="http://www.w3.org/1999/xlink" width="41px" height="41px" xmlns="http://www.w3.org/2000/svg">
  <defs>
    <filter x="695px" y="3245px" width="41px" height="41px" filterUnits="userSpaceOnUse" id="filter33">
      <feOffset dx="2" dy="2" in="SourceAlpha" result="shadowOffsetInner" />
      <feGaussianBlur stdDeviation="2.5" in="shadowOffsetInner" result="shadowGaussian" />
      <feComposite in2="shadowGaussian" operator="atop" in="SourceAlpha" result="shadowComposite" />
      <feColorMatrix type="matrix" values="0 0 0 0 0  0 0 0 0 0  0 0 0 0 0  0 0 0 0.349019607843137 0  " in="shadowComposite" />
    </filter>
    <g id="widget34">
      <path d="M 713.5 3248  C 722.18 3248  729 3254.82  729 3263.5  C 729 3272.18  722.18 3279  713.5 3279  C 704.82 3279  698 3272.18  698 3263.5  C 698 3254.82  704.82 3248  713.5 3248  Z " fill-rule="nonzero" fill="#ffffff" stroke="none" />
      <path d="M 713.5 3248.5  C 721.9 3248.5  728.5 3255.1  728.5 3263.5  C 728.5 3271.9  721.9 3278.5  713.5 3278.5  C 705.1 3278.5  698.5 3271.9  698.5 3263.5  C 698.5 3255.1  705.1 3248.5  713.5 3248.5  Z " stroke-width="1" stroke="#797979" fill="none" />
    </g>
  </defs>
  <g transform="matrix(1 0 0 1 -695 -3245 )">
    <use xlink:href="#widget34" filter="url(#filter33)" />
    <use xlink:href="#widget34" />
  </g>
</svg>