<?xml version="1.0" encoding="utf-8"?>
<svg version="1.1" xmlns:xlink="http://www.w3.org/1999/xlink" width="16px" height="16px" xmlns="http://www.w3.org/2000/svg">
  <g transform="matrix(1 0 0 1 -295 -492 )">
    <path d="M 303 492  C 307.48 492  311 495.52  311 500  C 311 504.48  307.48 508  303 508  C 298.52 508  295 504.48  295 500  C 295 495.52  298.52 492  303 492  Z " fill-rule="nonzero" fill="#ffffff" stroke="none" fill-opacity="0" />
    <path d="M 303 492.5  C 307.2 492.5  310.5 495.8  310.5 500  C 310.5 504.2  307.2 507.5  303 507.5  C 298.8 507.5  295.5 504.2  295.5 500  C 295.5 495.8  298.8 492.5  303 492.5  Z " stroke-width="1" stroke="#797979" fill="none" />
  </g>
</svg>