<?xml version="1.0" encoding="utf-8"?>
<svg version="1.1" xmlns:xlink="http://www.w3.org/1999/xlink" width="12px" height="12px" xmlns="http://www.w3.org/2000/svg">
  <g transform="matrix(1 0 0 1 -108 -3156 )">
    <path d="M 114 3156  C 117.36 3156  120 3158.64  120 3162  C 120 3165.36  117.36 3168  114 3168  C 110.64 3168  108 3165.36  108 3162  C 108 3158.64  110.64 3156  114 3156  Z " fill-rule="nonzero" fill="#015478" stroke="none" />
    <path d="M 114 3156.5  C 117.08 3156.5  119.5 3158.92  119.5 3162  C 119.5 3165.08  117.08 3167.5  114 3167.5  C 110.92 3167.5  108.5 3165.08  108.5 3162  C 108.5 3158.92  110.92 3156.5  114 3156.5  Z " stroke-width="1" stroke="#015478" fill="none" />
  </g>
</svg>